<mxfile host="app.diagrams.net" agent="Mozilla/5.0 (X11; Ubuntu; Linux x86_64; rv:136.0) Gecko/20100101 Firefox/136.0" version="26.1.1">
  <diagram name="Página-1" id="cw6PP46k9O4EjAkR_TEm">
    <mxGraphModel dx="886" dy="532" grid="1" gridSize="10" guides="1" tooltips="1" connect="1" arrows="1" fold="1" page="1" pageScale="1" pageWidth="827" pageHeight="1169" math="0" shadow="0">
      <root>
        <mxCell id="0" />
        <mxCell id="1" parent="0" />
        <mxCell id="0zB4xki3hr7YBhD-7y5d-2" value="&lt;div&gt;Entrada de parámetros:&lt;/div&gt;&lt;div&gt;- Nombre&lt;/div&gt;&lt;div&gt;- Apellido&lt;/div&gt;&lt;div&gt;- Departamento&lt;/div&gt;" style="rounded=1;whiteSpace=wrap;html=1;fontSize=15;fontStyle=1;fillColor=#fff2cc;strokeColor=#d6b656;" vertex="1" parent="1">
          <mxGeometry x="110" y="40" width="170" height="120" as="geometry" />
        </mxCell>
        <mxCell id="0zB4xki3hr7YBhD-7y5d-3" value="" style="html=1;shadow=0;dashed=0;align=center;verticalAlign=middle;shape=mxgraph.arrows2.arrow;dy=0.6;dx=40;direction=south;notch=0;fillColor=#fff2cc;strokeColor=#d6b656;" vertex="1" parent="1">
          <mxGeometry x="190" y="170" width="20" height="80" as="geometry" />
        </mxCell>
        <mxCell id="0zB4xki3hr7YBhD-7y5d-4" value="&lt;div&gt;Etapa 1:&lt;/div&gt;&lt;div&gt;Crear grupos:&lt;/div&gt;&lt;div&gt;- Finanzas&lt;/div&gt;&lt;div&gt;- Contabilidad&lt;/div&gt;&lt;div&gt;- Tecnologia&lt;/div&gt;" style="rounded=1;whiteSpace=wrap;html=1;fillColor=#fff2cc;strokeColor=#d6b656;fontStyle=1;fontSize=14;" vertex="1" parent="1">
          <mxGeometry x="110" y="260" width="170" height="110" as="geometry" />
        </mxCell>
        <mxCell id="0zB4xki3hr7YBhD-7y5d-5" value="" style="html=1;shadow=0;dashed=0;align=center;verticalAlign=middle;shape=mxgraph.arrows2.arrow;dy=0.6;dx=40;direction=east;notch=0;fillColor=#fff2cc;strokeColor=#d6b656;" vertex="1" parent="1">
          <mxGeometry x="320" y="310" width="80" height="20" as="geometry" />
        </mxCell>
        <mxCell id="0zB4xki3hr7YBhD-7y5d-7" value="&lt;div&gt;Etapa 2:&lt;/div&gt;&lt;div&gt;-Generar login&lt;/div&gt;&lt;div&gt;-Generar contraseña&lt;/div&gt;&lt;div&gt;-Crear usuario&lt;/div&gt;&lt;div&gt;-Asignar a grupo&lt;/div&gt;" style="rounded=1;whiteSpace=wrap;html=1;fillColor=#fff2cc;strokeColor=#d6b656;fontStyle=1;fontSize=14;" vertex="1" parent="1">
          <mxGeometry x="440" y="265" width="170" height="110" as="geometry" />
        </mxCell>
      </root>
    </mxGraphModel>
  </diagram>
</mxfile>
